#!OML:ASF F:\VICON\USERDATA\INSTALL\rory3\rory3.ASF
:FULLY-SPECIFIED
:DEGREES
47
root -0.6926163537314008 18.313580782947522 11.394747965776983 3.514838041225687 -3.407840081264628 -2.302062641625056
lfemur -4.6426406648085585 -0.4715216610751916 -19.34113227405819
ltibia 83.78363337343671
lfoot 16.352428190452105 -10.567822101301893
ltoes -15.65305179886011
rfemur -19.63988988324019 6.152270595241485 30.389693449143355
rtibia 33.91069758073375
rfoot 4.038020854110024 -2.464878323201561
rtoes 0.6741486175103835
lowerback 14.163132667708119 0.3953350486303319 2.575241068569871
upperback -0.6237850565179672 1.1488859965553817 2.3334215056512977
thorax -8.928313090731057 0.578838601487288 0.7923824914592181
lowerneck -19.482497606885378 -3.2936469875074446 -2.151845781762108
upperneck 13.150824833787407 -4.045680973310125 1.2965265693353003
head 7.3459193278806065 -1.887838266686951 0.3138571335974379
lclavicle -6.477657499454971e-16 -4.860687357179984e-15
lhumerus -38.758876627744776 -18.424241585513343 97.6948219232787
lradius 111.86770990364032
lwrist 35.561346851338634
lhand -31.070720332914608 -1.0276992828658917
lfingers 7.125019999999998
lthumb -4.716790395759528 28.7103516919276
rclavicle -6.477657499741609e-16 -4.860687357199543e-15
rhumerus -57.87452038186032 7.448772078823648 -96.30735825738391
rradius 119.99903920620594
rwrist -12.751846679560874
rhand -18.204612667956045 36.16872042856713
rfingers 7.125019999999998
rthumb 8.372531490548507 7.076741500506172
48
root -0.6881594505270205 18.157635947106154 12.722677613488962 2.7770127490388803 -3.175709386769724 -2.6890081624679234
lfemur -6.443946005600129 0.20297970728110826 -18.30582293974216
ltibia 87.49511549211157
lfoot 14.57763482757604 -10.636343859999759
ltoes -12.703667955306265
rfemur -17.32116764410514 6.608268858291831 31.252560686568533
rtibia 38.96446843987289
rfoot -0.09110967627896516 -3.415304654217813
rtoes 1.530230740501724
lowerback 14.743242221305595 0.5770221545408079 3.0025859105091026
upperback -0.39119345043292975 1.45592869739743 2.3842429548259796
thorax -8.96154084994972 0.7099674553170254 0.4565041161849847
lowerneck -19.632546869221486 -3.519583065875424 -2.1052758789987545
upperneck 12.40093682927747 -4.392521759125414 1.3090684653190823
head 7.0909904995175355 -2.072018072836103 0.256936848340478
lclavicle -6.477657499424625e-16 -4.8606873571779694e-15
lhumerus -39.361685904677415 -17.580816699518152 97.70637228446725
lradius 109.02235831271977
lwrist 36.86877749886235
lhand -31.617309534201954 -0.3836018796356093
lfingers 7.125019999999998
lthumb -5.3904371068590615 29.185027865385162
rclavicle -6.477657499741377e-16 -4.8606873571996804e-15
rhumerus -56.98306020095604 7.171634734459888 -96.06209403248207
rradius 119.36930689960674
rwrist -12.925057183891061
rhand -18.16810261624325 36.0646775004976
rfingers 7.125019999999998
rthumb 8.407085667884541 6.885458479841961
49
root -0.7072473953704157 17.971885980012473 13.871195337904833 2.1355224213630017 -2.963397308840416 -3.1556176331858135
lfemur -8.508983971594178 1.1049904420264105 -16.969906961980335
ltibia 91.02378582697995
lfoot 12.715199581466754 -10.671084977349446
ltoes -8.821545905222933
rfemur -15.008880774932335 6.974635015765322 32.211225344041914
rtibia 44.007164523026645
rfoot -3.8926311548135186 -4.98403606509317
rtoes 2.0840848157419343
lowerback 15.3992605622728 0.7562306465492642 3.400401549382551
upperback -0.21084822789837154 1.75707366712903 2.439432570649478
thorax -9.098213108368927 0.8279978680482201 0.1752027612701299
lowerneck -19.760332046438425 -3.7326189509177934 -2.048887468068133
upperneck 11.718503840870289 -4.7268219795219535 1.3226931414701122
head 6.890114944445359 -2.2392475732181727 0.19033542417612564
lclavicle -6.477657499294913e-16 -4.86068735716882e-15
lhumerus -40.403087036193625 -16.58054528760585 97.80661475596213
lradius 106.5855824998336
lwrist 37.35819004258853
lhand -32.014715035014234 0.1705493187446263
lfingers 7.125019999999998
lthumb -5.830082760830026 29.68408888180561
rclavicle -6.477657499711563e-16 -4.860687357197642e-15
rhumerus -55.876021392985265 7.0943454694585 -96.00050414577672
rradius 118.59601983730951
rwrist -13.251495784354143
rhand -18.28170404665364 35.680067621135905
rfingers 7.125019999999998
rthumb 8.24324890660409 6.2430145956158265
50
root -0.6995401008361166 17.764440952628068 15.366706417433607 1.5552435917955743 -2.508299255589133 -3.4260067088048043
lfemur -10.879914923787261 2.023749378259827 -15.864573354098694
ltibia 94.30771360447734
lfoot 10.622476809992111 -10.77705160134322
ltoes -6.13228871455499
rfemur -12.623392011298531 7.019869612242419 32.848859769011256
rtibia 49.38152036753452
rfoot -7.335705441083864 -6.716144385966728
rtoes 4.399495479205479
lowerback 15.925006266918883 0.8827862798797927 3.6014658228531027
upperback -0.05390565541664527 1.9590944806324595 2.481673664092299
thorax -9.113476537338927 0.9000375014604629 -0.11161108724020574
lowerneck -20.034332938839793 -3.953568176579914 -1.973618355569231
upperneck 11.15418213715904 -5.078569029345605 1.380383856290458
head 6.786694880938962 -2.411386102192743 0.11571863402962668
lclavicle -6.477657499241306e-16 -4.860687357165305e-15
lhumerus -41.95587439381652 -15.752605559481287 97.91133033915962
lradius 104.71640616588299
lwrist 37.55941359506005
lhand -32.283738148241845 0.030371482837524694
lfingers 7.125019999999998
lthumb -5.874962668737586 29.735126154634873
rclavicle -6.477657499770753e-16 -4.860687357202045e-15
rhumerus -54.56964115966822 7.23680671498746 -96.13297036160535
rradius 117.76223122063217
rwrist -13.493224750394123
rhand -18.326405355074797 35.461813500483025
rfingers 7.125019999999998
rthumb 8.21486520216392 5.719833326401908
51
root -0.7649024064517268 17.55424435380689 15.843954647035876 1.2912590124941126 -2.1416693232803565 -4.1483718091268935
lfemur -14.014714110382295 3.1227115732522184 -14.149639446927814
ltibia 97.74417213561253
lfoot 8.71149054123088 -10.831872572507315
ltoes -4.096488789360346
rfemur -10.060637100513148 7.011294328935095 33.95740806552621
rtibia 53.54635101126833
rfoot -10.340255677648726 -8.446520968626523
rtoes 4.485984400944179
lowerback 16.544867273143147 1.02958623960982 4.047757459352785
upperback 0.0712156971976925 2.2375015099868256 2.5974990269191482
thorax -9.334060822502241 0.9785280138526309 -0.25366223540326616
lowerneck -20.232227156251053 -4.136028827789461 -1.88947003375797
upperneck 10.618324324804597 -5.386188041036089 1.4172152341727813
head 6.653428544749142 -2.5554143181641757 0.057436967014160345
lclavicle -6.477657499309401e-16 -4.860687357170385e-15
lhumerus -43.71928031294563 -14.997430912757448 98.07266578480484
lradius 103.45606959366673
lwrist 37.80276071980444
lhand -32.38270943409536 0.19985905330477757
lfingers 7.125019999999998
lthumb -5.909967402643476 29.900699633531733
rclavicle -6.477657499739633e-16 -4.860687357200132e-15
rhumerus -53.16192370484014 7.584599614464572 -96.37726652063253
rradius 116.96202993565419
rwrist -13.507503652193963
rhand -18.445018088004776 35.05540884886492
rfingers 7.125019999999998
rthumb 8.033379989076854 4.9461688653461175
